<svg width="71" height="71" viewBox="0 0 71 71" fill="none" xmlns="http://www.w3.org/2000/svg">
<mask id="mask0_514_4397" style="mask-type:alpha" maskUnits="userSpaceOnUse" x="0" y="0" width="71" height="71">
<rect width="71" height="71" fill="#D9D9D9"/>
</mask>
<g mask="url(#mask0_514_4397)">
<path d="M12.2065 60.645C9.94756 60.645 8.02637 59.8541 6.44292 58.2722C4.85947 56.6903 4.06775 54.7694 4.06775 52.5096C4.06775 50.6626 4.62717 49.0175 5.74601 47.5744C6.8649 46.1313 8.2777 45.1802 9.98442 44.7213V26.2773C8.2777 25.8183 6.8649 24.8673 5.74601 23.4242C4.62717 21.9811 4.06775 20.336 4.06775 18.4889C4.06775 16.2291 4.85836 14.3083 6.43959 12.7264C8.02082 11.1445 9.94088 10.3535 12.1998 10.3535C14.4586 10.3535 16.3798 11.1445 17.9633 12.7264C19.5468 14.3083 20.3385 16.2291 20.3385 18.4889C20.3385 20.336 19.7791 21.9811 18.6602 23.4242C17.5413 24.8673 16.1286 25.8183 14.4218 26.2773V33.2806H33.2813V26.2773C31.5745 25.8183 30.1617 24.8673 29.0429 23.4242C27.924 21.9811 27.3646 20.336 27.3646 18.4889C27.3646 16.2291 28.1552 14.3083 29.7365 12.7264C31.3177 11.1445 33.2378 10.3535 35.4966 10.3535C37.7555 10.3535 39.6767 11.1445 41.2601 12.7264C42.8436 14.3083 43.6353 16.2291 43.6353 18.4889C43.6353 20.336 43.0759 21.9811 41.9571 23.4242C40.8382 24.8673 39.4254 25.8183 37.7186 26.2773V33.2806H52.9086C53.9365 33.2806 54.8098 32.9212 55.5285 32.2025C56.2472 31.4837 56.6066 30.6104 56.6066 29.5826V26.2773C54.8999 25.8183 53.4871 24.8673 52.3682 23.4242C51.2493 21.9811 50.6899 20.336 50.6899 18.4889C50.6899 16.2291 51.4805 14.3083 53.0618 12.7264C54.643 11.1445 56.563 10.3535 58.8219 10.3535C61.0808 10.3535 63.002 11.1445 64.5854 12.7264C66.1689 14.3083 66.9607 16.2291 66.9607 18.4889C66.9607 20.336 66.4012 21.9811 65.2823 23.4242C64.1635 24.8673 62.7507 25.8183 61.044 26.2773V29.5826C61.044 31.8424 60.253 33.7633 58.6711 35.3451C57.0892 36.927 55.1684 37.718 52.9086 37.718H37.7186V44.7213C39.4254 45.1802 40.8382 46.1313 41.9571 47.5744C43.0759 49.0175 43.6353 50.6626 43.6353 52.5096C43.6353 54.7694 42.8447 56.6903 41.2635 58.2722C39.6822 59.8541 37.7622 60.645 35.5033 60.645C33.2444 60.645 31.3232 59.8541 29.7398 58.2722C28.1563 56.6903 27.3646 54.7694 27.3646 52.5096C27.3646 50.6626 27.924 49.0175 29.0429 47.5744C30.1617 46.1313 31.5745 45.1802 33.2813 44.7213V37.718H14.4218V44.7213C16.1286 45.1802 17.5413 46.1313 18.6602 47.5744C19.7791 49.0175 20.3385 50.6626 20.3385 52.5096C20.3385 54.7694 19.5479 56.6903 17.9667 58.2722C16.3854 59.8541 14.4654 60.645 12.2065 60.645Z" fill="white"/>
</g>
</svg>
