<svg width="71" height="71" viewBox="0 0 71 71" fill="none" xmlns="http://www.w3.org/2000/svg">
<mask id="mask0_514_4394" style="mask-type:alpha" maskUnits="userSpaceOnUse" x="0" y="0" width="71" height="71">
<rect width="71" height="71" fill="#D9D9D9"/>
</mask>
<g mask="url(#mask0_514_4394)">
<path d="M20.7084 62.6943C19.3658 62.6943 18.2147 62.2146 17.2551 61.255C16.2956 60.2954 15.8158 59.1443 15.8158 57.8018V28.2184C15.8158 26.8758 16.2956 25.7248 17.2551 24.7652C18.2147 23.8056 19.3658 23.3259 20.7084 23.3259H50.2917C51.6343 23.3259 52.7854 23.8056 53.745 24.7652C54.7045 25.7248 55.1843 26.8758 55.1843 28.2184V57.8018C55.1843 59.1443 54.7045 60.2954 53.745 61.255C52.7854 62.2146 51.6343 62.6943 50.2917 62.6943H20.7084ZM32.9968 58.8258H38.0032V54.9572H32.9968V58.8258ZM32.94 51.4299H38.0601C38.1549 50.1252 38.5702 48.9058 39.306 47.7718C40.0418 46.6378 40.8402 45.5076 41.7011 44.3811C42.5621 43.2244 43.3367 42.0524 44.0251 40.8653C44.7135 39.6782 45.0577 38.364 45.0577 36.9227C45.0577 34.2906 44.1228 32.0396 42.2529 30.1698C40.3831 28.3 38.1322 27.3651 35.5 27.3651C32.8679 27.3651 30.6169 28.3 28.7471 30.1698C26.8773 32.0396 25.9424 34.2906 25.9424 36.9227C25.9424 38.364 26.2866 39.6782 26.9749 40.8653C27.6633 42.0524 28.438 43.2244 29.2989 44.3811C30.1599 45.4886 30.9583 46.6141 31.6941 47.7576C32.4298 48.9011 32.8451 50.1252 32.94 51.4299ZM18.888 18.8884C18.9828 17.8833 19.4 17.0442 20.1395 16.371C20.8791 15.6978 21.7609 15.3612 22.785 15.3612H48.2151C49.2391 15.3612 50.1209 15.6978 50.8605 16.371C51.6001 17.0442 52.0173 17.8833 52.1121 18.8884H18.888ZM21.8747 10.9237C21.9695 9.91866 22.3867 9.07953 23.1263 8.40632C23.8659 7.7331 24.7477 7.39648 25.7717 7.39648H45.2284C46.2524 7.39648 47.1342 7.7331 47.8738 8.40632C48.6133 9.07953 49.0305 9.91866 49.1254 10.9237H21.8747Z" fill="white"/>
</g>
</svg>
