<svg width="71" height="71" viewBox="0 0 71 71" fill="none" xmlns="http://www.w3.org/2000/svg">
<mask id="mask0_514_4388" style="mask-type:alpha" maskUnits="userSpaceOnUse" x="0" y="0" width="71" height="71">
<rect width="71" height="71" fill="white"/>
</mask>
<g mask="url(#mask0_514_4388)">
<path d="M4.46605 58.2587V47.165C4.46605 45.7352 4.95057 44.5244 5.91963 43.5326C6.88863 42.5408 8.06341 42.0259 9.44396 41.988H18.5635C19.4548 41.988 20.3016 42.2061 21.1037 42.6423C21.9059 43.0784 22.5592 43.6872 23.0636 44.4684C24.5314 46.4862 26.351 48.0564 28.5223 49.1791C30.6936 50.3017 33.0195 50.863 35.5 50.863C38.0108 50.863 40.3566 50.3017 42.5374 49.1791C44.7183 48.0564 46.5274 46.4862 47.9649 44.4684C48.53 43.6872 49.206 43.0784 49.993 42.6423C50.78 42.2061 51.5945 41.988 52.4365 41.988H61.556C62.9669 42.0259 64.154 42.5408 65.1174 43.5326C66.0807 44.5244 66.5624 45.7352 66.5624 47.165V58.2587H47.3333V51.3009C45.6456 52.5905 43.7985 53.5794 41.7922 54.2679C39.7858 54.9562 37.6884 55.3004 35.5 55.3004C33.3609 55.3004 31.2853 54.9534 29.2733 54.2593C27.2612 53.5652 25.4019 52.5734 23.6951 51.2839V58.2587H4.46605ZM35.5 46.7668C33.7212 46.7668 32.0363 46.3543 30.4452 45.5294C28.8542 44.7045 27.5201 43.5657 26.443 42.1131C25.6807 41.0132 24.7515 40.1153 23.6554 39.4193C22.5592 38.7234 21.3664 38.2995 20.077 38.1478C21.3324 36.608 23.5255 35.4124 26.6564 34.5609C29.7873 33.7095 32.7351 33.2837 35.5 33.2837C38.2649 33.2837 41.2127 33.7095 44.3436 34.5609C47.4745 35.4124 49.6771 36.608 50.9515 38.1478C49.6924 38.2995 48.5071 38.7234 47.3958 39.4193C46.2846 40.1153 45.3478 41.0132 44.5855 42.1131C43.5577 43.615 42.2435 44.7661 40.6429 45.5664C39.0424 46.3666 37.3281 46.7668 35.5 46.7668ZM12.6867 37.8918C10.4491 37.8918 8.53376 37.0953 6.94084 35.5024C5.34788 33.9094 4.5514 31.9941 4.5514 29.7564C4.5514 27.4694 5.34785 25.5418 6.94077 23.9735C8.53373 22.4052 10.4491 21.6211 12.6867 21.6211C14.9738 21.6211 16.9014 22.4052 18.4697 23.9735C20.038 25.5418 20.8222 27.4694 20.8222 29.7564C20.8222 31.9941 20.038 33.9094 18.4697 35.5024C16.9014 37.0953 14.9738 37.8918 12.6867 37.8918ZM58.3133 37.8918C56.0755 37.8918 54.1602 37.0953 52.5673 35.5024C50.9743 33.9094 50.1778 31.9941 50.1778 29.7564C50.1778 27.4694 50.9743 25.5418 52.5673 23.9735C54.1602 22.4052 56.0755 21.6211 58.3133 21.6211C60.6003 21.6211 62.5279 22.4052 64.0961 23.9735C65.6645 25.5418 66.4486 27.4694 66.4486 29.7564C66.4486 31.9941 65.6645 33.9094 64.0961 35.5024C62.5279 37.0953 60.6003 37.8918 58.3133 37.8918ZM35.5 29.0168C33.2623 29.0168 31.347 28.2203 29.754 26.6274C28.1611 25.0344 27.3647 23.1191 27.3647 20.8814C27.3647 18.5944 28.1611 16.6668 29.754 15.0985C31.347 13.5302 33.2623 12.7461 35.5 12.7461C37.787 12.7461 39.7146 13.5302 41.283 15.0985C42.8512 16.6668 43.6353 18.5944 43.6353 20.8814C43.6353 23.1191 42.8512 25.0344 41.283 26.6274C39.7146 28.2203 37.787 29.0168 35.5 29.0168Z" fill="#111B24"/>
</g>
</svg>
