<svg width="17" height="16" viewBox="0 0 17 16" fill="none" xmlns="http://www.w3.org/2000/svg">
<path d="M15.0642 0.0126953H1.96539C1.63286 0.0129572 1.30756 0.109733 1.02896 0.291277C0.750358 0.472822 0.530442 0.73133 0.395901 1.03543C0.261359 1.33952 0.217976 1.67614 0.271017 2.00441C0.324058 2.33268 0.471243 2.6385 0.694708 2.88475L6.37146 9.12796V15.016C6.37151 15.1311 6.404 15.2438 6.46519 15.3413C6.52639 15.4388 6.61382 15.5171 6.71746 15.5671C6.80028 15.608 6.89149 15.6289 6.98384 15.6284C7.12302 15.6283 7.25802 15.5807 7.36658 15.4936L8.51479 14.5751L10.4285 13.0441C10.5001 12.9868 10.5579 12.9141 10.5976 12.8314C10.6374 12.7487 10.6581 12.6582 10.6581 12.5665V9.12796L16.3349 2.88475C16.5583 2.6385 16.7055 2.33268 16.7586 2.00441C16.8116 1.67614 16.7682 1.33952 16.6337 1.03543C16.4991 0.73133 16.2792 0.472822 16.0006 0.291277C15.722 0.109733 15.3967 0.0129572 15.0642 0.0126953Z" fill="#00CBDF"/>
</svg>
