<svg width="71" height="71" viewBox="0 0 71 71" fill="none" xmlns="http://www.w3.org/2000/svg">
<mask id="mask0_514_4391" style="mask-type:alpha" maskUnits="userSpaceOnUse" x="0" y="0" width="71" height="71">
<rect width="71" height="71" fill="#D9D9D9"/>
</mask>
<g mask="url(#mask0_514_4391)">
<path d="M5.31946 57.1158V50.5393C5.31946 49.0146 5.71297 47.654 6.49998 46.4575C7.28695 45.2609 8.33794 44.3299 9.65297 43.6645C12.4644 42.2894 15.2915 41.2292 18.1341 40.4839C20.9767 39.7387 24.101 39.3661 27.5069 39.3661C30.9128 39.3661 34.037 39.7387 36.8796 40.4839C39.7223 41.2292 42.5493 42.2894 45.3608 43.6645C46.6758 44.3299 47.7268 45.2609 48.5138 46.4575C49.3008 47.654 49.6942 49.0146 49.6942 50.5393V57.1158H5.31946ZM55.6109 57.1158V50.1752C55.6109 48.2334 55.1355 46.3827 54.1845 44.6232C53.2336 42.8638 51.8848 41.3541 50.1381 40.0943C52.1217 40.3901 54.0048 40.8481 55.7873 41.4682C57.5698 42.0883 59.2709 42.8212 60.8904 43.667C62.4188 44.4824 63.5993 45.4434 64.4318 46.5502C65.2643 47.6569 65.6806 48.8653 65.6806 50.1752V57.1158H55.6109ZM27.5069 34.587C24.6595 34.587 22.222 33.5732 20.1943 31.5456C18.1666 29.5179 17.1528 27.0803 17.1528 24.233C17.1528 21.3856 18.1666 18.9481 20.1943 16.9204C22.222 14.8928 24.6595 13.8789 27.5069 13.8789C30.3542 13.8789 32.7917 14.8928 34.8194 16.9204C36.8471 18.9481 37.8609 21.3856 37.8609 24.233C37.8609 27.0803 36.8471 29.5179 34.8194 31.5456C32.7917 33.5732 30.3542 34.587 27.5069 34.587ZM53.0507 24.233C53.0507 27.0803 52.0368 29.5179 50.0092 31.5456C47.9815 33.5732 45.5439 34.587 42.6966 34.587C42.3629 34.587 41.9381 34.5491 41.4223 34.4733C40.9065 34.3974 40.4817 34.314 40.148 34.223C41.3147 32.8204 42.2113 31.2644 42.8378 29.555C43.4643 27.8455 43.7776 26.0704 43.7776 24.2295C43.7776 22.3886 43.458 20.6205 42.819 18.9251C42.18 17.2298 41.2896 15.6691 40.148 14.243C40.5728 14.0913 40.9975 13.9927 41.4223 13.9472C41.8471 13.9017 42.2718 13.8789 42.6966 13.8789C45.5439 13.8789 47.9815 14.8928 50.0092 16.9204C52.0368 18.9481 53.0507 21.3856 53.0507 24.233Z" fill="white"/>
</g>
</svg>
